<?xml version="1.0" encoding="utf-8"?>
<!DOCTYPE svg PUBLIC "-//W3C//DTD SVG 1.1 Tiny//EN" "http://www.w3.org/Graphics/SVG/1.1/DTD/svg11-tiny.dtd">
<svg version="1.1" baseProfile="tiny" id="Layer_1" xmlns="http://www.w3.org/2000/svg" xmlns:xlink="http://www.w3.org/1999/xlink"
	 x="0px" y="0px" width="290.808px" height="195.391px" viewBox="0 0 290.808 195.391" xml:space="preserve">
	<path fill="#8AA2B1" d="M28.685,161.783c-1.916,0-3.474,1.491-3.474,3.327v30.281h6.949V165.11
		C32.16,163.274,30.605,161.783,28.685,161.783z"/>
	<path fill="#8AA2B1" d="M17.44,153.739c-1.917,0-3.473,1.49-3.473,3.324v38.328h6.948v-38.328
		C20.916,155.229,19.359,153.739,17.44,153.739z"/>
	<path fill="#8AA2B1" d="M6.199,168.042c-1.919,0-3.477,1.482-3.477,3.324v24.025h6.95v-24.025
		C9.673,169.524,8.121,168.042,6.199,168.042z"/>
	<path fill="#8AA2B1" d="M96.151,171.956c-1.92,0-3.474,1.488-3.474,3.323v20.112h6.948v-20.112
		C99.626,173.444,98.068,171.956,96.151,171.956z"/>
	<path fill="#8AA2B1" d="M84.907,163.911c-1.92,0-3.474,1.488-3.474,3.322v28.158h6.949v-28.158
		C88.383,165.399,86.827,163.911,84.907,163.911z"/>
	<path fill="#8AA2B1" d="M107.396,163.911c-1.92,0-3.474,1.488-3.474,3.322v28.158h6.946v-28.158
		C110.868,165.399,109.313,163.911,107.396,163.911z"/>
	<path fill="#8AA2B1" d="M73.663,178.211c-1.917,0-3.475,1.486-3.475,3.324v13.855h6.949v-13.855
		C77.138,179.698,75.583,178.211,73.663,178.211z"/>
	<path fill="#8AA2B1" d="M62.419,168.379c-1.92,0-3.475,1.484-3.475,3.322v23.689h6.95v-23.689
		C65.895,169.864,64.336,168.379,62.419,168.379z"/>
	<path fill="#8AA2B1" d="M51.175,172.846c-1.921,0-3.476,1.49-3.476,3.323v19.222h6.95v-19.222
		C54.649,174.336,53.093,172.846,51.175,172.846z"/>
	<path fill="#8AA2B1" d="M39.931,166.589c-1.918,0-3.474,1.491-3.474,3.325v25.477h6.946v-25.477
		C43.403,168.081,41.851,166.589,39.931,166.589z"/>
	<path fill="#8AA2B1" d="M290.78,156.4c0-1.837-1.558-3.325-3.477-3.325c-1.917,0-3.475,1.488-3.475,3.325v38.991h6.951V156.4z"/>
	<path fill="#8AA2B1" d="M279.535,156.4c0-1.837-1.558-3.325-3.473-3.325c-1.921,0-3.476,1.488-3.476,3.325v38.991h6.948V156.4z"/>
	<path fill="#8AA2B1" d="M268.29,156.4c0-1.837-1.559-3.325-3.475-3.325c-1.921,0-3.475,1.488-3.475,3.325v38.991h6.949V156.4z"/>
	<path fill="#8AA2B1" d="M257.046,156.4c0-1.837-1.556-3.325-3.474-3.325c-1.922,0-3.477,1.488-3.477,3.325v38.991h6.95V156.4z"/>
	<path fill="#8AA2B1" d="M245.803,156.4c0-1.837-1.555-3.325-3.475-3.325c-1.919,0-3.474,1.488-3.474,3.325v38.991h6.948V156.4z"/>
	<path fill="#8AA2B1" d="M234.56,156.4c0-1.837-1.556-3.325-3.475-3.325c-1.92,0-3.477,1.488-3.477,3.325v38.991h6.951V156.4z"/>
	<path fill="#AD9C95" d="M287.332,102.635c-1.919,0-3.476,1.487-3.476,3.325v42.004c0,1.836,1.557,3.325,3.476,3.325
		c1.917,0,3.476-1.489,3.476-3.325V105.96C290.808,104.123,289.249,102.635,287.332,102.635z"/>
	<path fill="#AD9C95" d="M276.099,102.635c-1.92,0-3.476,1.487-3.476,3.325v42.004c0,1.836,1.556,3.325,3.476,3.325
		c1.918,0,3.473-1.489,3.473-3.325V105.96C279.571,104.123,278.017,102.635,276.099,102.635z"/>
	<path fill="#AD9C95" d="M264.862,102.635c-1.919,0-3.475,1.487-3.475,3.325v42.004c0,1.836,1.556,3.325,3.475,3.325
		c1.916,0,3.475-1.489,3.475-3.325V105.96C268.337,104.123,266.778,102.635,264.862,102.635z"/>
	<path fill="#AD9C95" d="M253.627,102.635c-1.921,0-3.475,1.487-3.475,3.325v42.004c0,1.836,1.554,3.325,3.475,3.325
		c1.919,0,3.476-1.489,3.476-3.325V105.96C257.103,104.123,255.546,102.635,253.627,102.635z"/>
	<path fill="#AD9C95" d="M242.393,102.635c-1.918,0-3.474,1.487-3.474,3.325v42.004c0,1.836,1.556,3.325,3.474,3.325
		c1.919,0,3.476-1.489,3.476-3.325V105.96C245.868,104.123,244.312,102.635,242.393,102.635z"/>
	<path fill="#AD9C95" d="M231.16,102.635c-1.92,0-3.477,1.487-3.477,3.325v42.004c0,1.836,1.557,3.325,3.477,3.325
		c1.919,0,3.473-1.489,3.473-3.325V105.96C234.633,104.123,233.079,102.635,231.16,102.635z"/>
	<path fill="#A8929C" d="M287.168,52.756c-1.919,0-3.475,1.487-3.475,3.322v42.004c0,1.838,1.556,3.326,3.475,3.326
		c1.917,0,3.476-1.488,3.476-3.326V56.078C290.644,54.243,289.085,52.756,287.168,52.756z"/>
	<path fill="#A8929C" d="M275.882,52.756c-1.921,0-3.476,1.487-3.476,3.322v42.004c0,1.838,1.555,3.326,3.476,3.326
		c1.917,0,3.472-1.488,3.472-3.326V56.078C279.354,54.243,277.799,52.756,275.882,52.756z"/>
	<path fill="#A8929C" d="M264.589,52.756c-1.92,0-3.475,1.487-3.475,3.322v42.004c0,1.838,1.555,3.326,3.475,3.326
		c1.917,0,3.476-1.488,3.476-3.326V56.078C268.064,54.243,266.506,52.756,264.589,52.756z"/>
	<path fill="#A8929C" d="M253.301,52.756c-1.921,0-3.477,1.487-3.477,3.322v42.004c0,1.838,1.556,3.326,3.477,3.326
		c1.919,0,3.475-1.488,3.475-3.326V56.078C256.775,54.243,255.22,52.756,253.301,52.756z"/>
	<path fill="#A8929C" d="M242.011,52.756c-1.918,0-3.474,1.487-3.474,3.322v42.004c0,1.838,1.556,3.326,3.474,3.326
		c1.919,0,3.474-1.488,3.474-3.326V56.078C245.484,54.243,243.93,52.756,242.011,52.756z"/>
	<path fill="#8AA2B1" d="M148.899,195.391h6.947V156.4c0-1.837-1.555-3.325-3.471-3.325c-1.919,0-3.477,1.488-3.477,3.325V195.391z"
		/>
	<path fill="#8AA2B1" d="M167.094,156.4c0-1.837-1.557-3.325-3.477-3.325c-1.916,0-3.475,1.488-3.475,3.325v38.991h6.951V156.4z"/>
	<path fill="#8AA2B1" d="M171.389,195.391h6.947V156.4c0-1.837-1.551-3.325-3.475-3.325c-1.917,0-3.473,1.488-3.473,3.325V195.391z"
		/>
	<path fill="#8AA2B1" d="M189.582,156.4c0-1.837-1.556-3.325-3.476-3.325c-1.919,0-3.477,1.488-3.477,3.325v38.991h6.952V156.4z"/>
	<path fill="#8AA2B1" d="M200.826,156.4c0-1.837-1.558-3.325-3.478-3.325c-1.918,0-3.473,1.488-3.473,3.325v38.991h6.95V156.4z"/>
	<path fill="#8AA2B1" d="M212.069,156.4c0-1.837-1.555-3.325-3.476-3.325c-1.917,0-3.475,1.488-3.475,3.325v38.991h6.95V156.4z"/>
	<path fill="#8AA2B1" d="M223.313,156.4c0-1.837-1.554-3.325-3.475-3.325c-1.918,0-3.475,1.488-3.475,3.325v38.991h6.949V156.4z"/>
	<path fill="#AD9C95" d="M152.515,151.29c1.918,0,3.473-1.489,3.473-3.325v-27.491c0-1.836-1.555-3.324-3.473-3.324
		c-1.919,0-3.476,1.488-3.476,3.324v27.491C149.039,149.8,150.596,151.29,152.515,151.29z"/>
	<path fill="#AD9C95" d="M163.747,102.635c-1.916,0-3.475,1.487-3.475,3.325v42.004c0,1.836,1.559,3.325,3.475,3.325
		c1.92,0,3.477-1.489,3.477-3.325V105.96C167.224,104.123,165.667,102.635,163.747,102.635z"/>
	<path fill="#AD9C95" d="M174.982,151.29c1.924,0,3.474-1.489,3.474-3.325V105.96c0-1.838-1.55-3.325-3.474-3.325
		c-1.917,0-3.473,1.487-3.473,3.325v42.004C171.51,149.8,173.065,151.29,174.982,151.29z"/>
	<path fill="#AD9C95" d="M186.218,102.635c-1.918,0-3.476,1.487-3.476,3.325v42.004c0,1.836,1.558,3.325,3.476,3.325
		c1.92,0,3.477-1.489,3.477-3.325V105.96C189.694,104.123,188.138,102.635,186.218,102.635z"/>
	<path fill="#AD9C95" d="M197.45,102.635c-1.918,0-3.475,1.487-3.475,3.325v42.004c0,1.836,1.557,3.325,3.475,3.325
		c1.92,0,3.479-1.489,3.479-3.325V105.96C200.929,104.123,199.37,102.635,197.45,102.635z"/>
	<path fill="#AD9C95" d="M208.686,102.635c-1.917,0-3.474,1.487-3.474,3.325v42.004c0,1.836,1.557,3.325,3.474,3.325
		c1.921,0,3.478-1.489,3.478-3.325V105.96C212.163,104.123,210.606,102.635,208.686,102.635z"/>
	<path fill="#8AA2B1" d="M115.164,195.391h6.953V156.4c0-1.837-1.558-3.325-3.476-3.325c-1.919,0-3.478,1.488-3.478,3.325V195.391z"
		/>
	<path fill="#8AA2B1" d="M126.41,195.391h6.95V156.4c0-1.837-1.555-3.325-3.476-3.325c-1.919,0-3.475,1.488-3.475,3.325V195.391z"/>
	<path fill="#8AA2B1" d="M137.655,195.391h6.947V156.4c0-1.837-1.556-3.325-3.476-3.325c-1.919,0-3.472,1.488-3.472,3.325V195.391z"
		/>
	<path fill="#AD9C95" d="M118.808,151.29c1.92,0,3.477-1.489,3.477-3.325v-1.365c0-1.837-1.557-3.323-3.477-3.323
		c-1.917,0-3.477,1.486-3.477,3.323v1.365C115.331,149.8,116.891,151.29,118.808,151.29z"/>
	<path fill="#AD9C95" d="M130.044,151.29c1.921,0,3.475-1.489,3.475-3.325v-17.331c0-1.834-1.554-3.324-3.475-3.324
		c-1.919,0-3.476,1.49-3.476,3.324v17.331C126.568,149.8,128.125,151.29,130.044,151.29z"/>
	<path fill="#AD9C95" d="M141.277,151.29c1.919,0,3.476-1.489,3.476-3.325v-12.978c0-1.836-1.557-3.324-3.476-3.324
		s-3.474,1.488-3.474,3.324v12.978C137.804,149.8,139.358,151.29,141.277,151.29z"/>
	<path fill="#AD9C95" d="M219.923,102.635c-1.917,0-3.474,1.487-3.474,3.325v42.004c0,1.836,1.557,3.325,3.474,3.325
		c1.921,0,3.475-1.489,3.475-3.325V105.96C223.397,104.123,221.844,102.635,219.923,102.635z"/>
	<path fill="#A8929C" d="M163.142,84.845c-1.916,0-3.476,1.488-3.476,3.323v9.914c0,1.838,1.56,3.326,3.476,3.326
		c1.92,0,3.475-1.488,3.475-3.326v-9.914C166.616,86.333,165.062,84.845,163.142,84.845z"/>
	<path fill="#A8929C" d="M185.563,81.782c-1.919,0-3.477,1.489-3.477,3.324v12.976c0,1.838,1.558,3.326,3.477,3.326
		c1.918,0,3.475-1.488,3.475-3.326V85.106C189.038,83.271,187.481,81.782,185.563,81.782z"/>
	<path fill="#A8929C" d="M196.85,67.269c-1.916,0-3.473,1.49-3.473,3.324v27.49c0,1.838,1.557,3.326,3.473,3.326
		c1.92,0,3.479-1.488,3.479-3.326v-27.49C200.328,68.759,198.77,67.269,196.85,67.269z"/>
	<path fill="#A8929C" d="M208.14,58.561c-1.916,0-3.473,1.487-3.473,3.323v36.198c0,1.838,1.557,3.326,3.473,3.326
		c1.922,0,3.479-1.488,3.479-3.326V61.884C211.618,60.048,210.062,58.561,208.14,58.561z"/>
	<path fill="#A8929C" d="M219.432,52.756c-1.919,0-3.476,1.487-3.476,3.322v42.004c0,1.838,1.557,3.326,3.476,3.326
		c1.92,0,3.475-1.488,3.475-3.326V56.078C222.906,54.243,221.352,52.756,219.432,52.756z"/>
	<path fill="#A8929C" d="M230.724,52.756c-1.921,0-3.478,1.487-3.478,3.322v42.004c0,1.838,1.557,3.326,3.478,3.326
		c1.918,0,3.472-1.488,3.472-3.326V56.078C234.195,54.243,232.642,52.756,230.724,52.756z"/>
	<path fill="#9C929C" d="M286.571,0.875c-1.919,0-3.476,1.488-3.476,3.324v44.006c0,1.836,1.557,3.324,3.476,3.324
		c1.918,0,3.476-1.488,3.476-3.324V4.198C290.047,2.362,288.489,0.875,286.571,0.875z"/>
	<path fill="#9C929C" d="M275.085,9.583c-1.92,0-3.475,1.488-3.475,3.323v35.298c0,1.836,1.555,3.324,3.475,3.324
		c1.918,0,3.473-1.488,3.473-3.324V12.906C278.558,11.071,277.003,9.583,275.085,9.583z"/>
	<path fill="#9C929C" d="M263.595,15.389c-1.92,0-3.475,1.49-3.475,3.324v29.492c0,1.836,1.555,3.324,3.475,3.324
		c1.918,0,3.475-1.488,3.475-3.324V18.712C267.069,16.878,265.513,15.389,263.595,15.389z"/>
	<path fill="#9C929C" d="M252.106,21.194c-1.92,0-3.478,1.489-3.478,3.324v23.686c0,1.836,1.558,3.324,3.478,3.324
		c1.919,0,3.475-1.488,3.475-3.324V24.519C255.581,22.684,254.025,21.194,252.106,21.194z"/>
	<path fill="#9C929C" d="M240.617,29.903c-1.917,0-3.473,1.489-3.473,3.324v14.978c0,1.836,1.556,3.324,3.473,3.324
		c1.92,0,3.476-1.488,3.476-3.324V33.227C244.093,31.392,242.537,29.903,240.617,29.903z"/>
	<path fill="#9C929C" d="M229.132,25.549c-1.921,0-3.478,1.489-3.478,3.325v19.331c0,1.836,1.557,3.324,3.478,3.324
		c1.918,0,3.472-1.488,3.472-3.324V28.874C232.604,27.038,231.05,25.549,229.132,25.549z"/>
</svg>
