<?xml version="1.0" encoding="utf-8"?>
<!-- Generator: Adobe Illustrator 16.2.1, SVG Export Plug-In . SVG Version: 6.00 Build 0)  -->
<!DOCTYPE svg PUBLIC "-//W3C//DTD SVG 1.1 Tiny//EN" "http://www.w3.org/Graphics/SVG/1.1/DTD/svg11-tiny.dtd">
<svg version="1.1" baseProfile="tiny" id="Layer_1" xmlns="http://www.w3.org/2000/svg" xmlns:xlink="http://www.w3.org/1999/xlink"
	 x="0px" y="0px" width="290.808px" height="196.391px" viewBox="0 0 290.808 196.391" xml:space="preserve">
<g>
	<path fill="#4D7F93" d="M28.685,162.783c-1.916,0-3.474,1.491-3.474,3.327v30.281h6.949V166.11
		C32.16,164.274,30.605,162.783,28.685,162.783z"/>
	<path fill="#4D7F93" d="M17.44,154.739c-1.917,0-3.473,1.49-3.473,3.324v38.328h6.948v-38.328
		C20.916,156.229,19.359,154.739,17.44,154.739z"/>
	<path fill="#4D7F93" d="M6.199,169.042c-1.919,0-3.477,1.482-3.477,3.324v24.025h6.95v-24.025
		C9.673,170.524,8.121,169.042,6.199,169.042z"/>
	<path fill="#4D7F93" d="M96.151,172.956c-1.92,0-3.474,1.488-3.474,3.323v20.112h6.948v-20.112
		C99.626,174.444,98.068,172.956,96.151,172.956z"/>
	<path fill="#4D7F93" d="M84.907,164.911c-1.92,0-3.474,1.488-3.474,3.322v28.158h6.949v-28.158
		C88.383,166.399,86.827,164.911,84.907,164.911z"/>
	<path fill="#4D7F93" d="M107.396,164.911c-1.92,0-3.474,1.488-3.474,3.322v28.158h6.946v-28.158
		C110.868,166.399,109.313,164.911,107.396,164.911z"/>
	<path fill="#4D7F93" d="M73.663,179.211c-1.917,0-3.475,1.486-3.475,3.324v13.855h6.949v-13.855
		C77.138,180.698,75.583,179.211,73.663,179.211z"/>
	<path fill="#4D7F93" d="M62.419,169.379c-1.92,0-3.475,1.484-3.475,3.322v23.689h6.95v-23.689
		C65.895,170.864,64.336,169.379,62.419,169.379z"/>
	<path fill="#4D7F93" d="M51.175,173.846c-1.921,0-3.476,1.49-3.476,3.323v19.222h6.95v-19.222
		C54.649,175.336,53.093,173.846,51.175,173.846z"/>
	<path fill="#4D7F93" d="M39.931,167.589c-1.918,0-3.474,1.491-3.474,3.325v25.477h6.946v-25.477
		C43.403,169.081,41.851,167.589,39.931,167.589z"/>
	<path fill="#4D7F93" d="M290.78,157.4c0-1.837-1.558-3.325-3.477-3.325c-1.917,0-3.475,1.488-3.475,3.325v38.991h6.951V157.4z"/>
	<path fill="#4D7F93" d="M279.535,157.4c0-1.837-1.558-3.325-3.473-3.325c-1.921,0-3.476,1.488-3.476,3.325v38.991h6.948V157.4z"/>
	<path fill="#4D7F93" d="M268.29,157.4c0-1.837-1.559-3.325-3.475-3.325c-1.921,0-3.475,1.488-3.475,3.325v38.991h6.949V157.4z"/>
	<path fill="#4D7F93" d="M257.046,157.4c0-1.837-1.556-3.325-3.474-3.325c-1.922,0-3.477,1.488-3.477,3.325v38.991h6.95V157.4z"/>
	<path fill="#4D7F93" d="M245.803,157.4c0-1.837-1.555-3.325-3.475-3.325c-1.919,0-3.474,1.488-3.474,3.325v38.991h6.948V157.4z"/>
	<path fill="#4D7F93" d="M234.56,157.4c0-1.837-1.556-3.325-3.475-3.325c-1.92,0-3.477,1.488-3.477,3.325v38.991h6.951V157.4z"/>
	<path fill="#F26822" d="M287.332,103.635c-1.919,0-3.476,1.487-3.476,3.325v42.004c0,1.836,1.557,3.325,3.476,3.325
		c1.917,0,3.476-1.489,3.476-3.325V106.96C290.808,105.123,289.249,103.635,287.332,103.635z"/>
	<path fill="#F26822" d="M276.099,103.635c-1.92,0-3.476,1.487-3.476,3.325v42.004c0,1.836,1.556,3.325,3.476,3.325
		c1.918,0,3.473-1.489,3.473-3.325V106.96C279.571,105.123,278.017,103.635,276.099,103.635z"/>
	<path fill="#F26822" d="M264.862,103.635c-1.919,0-3.475,1.487-3.475,3.325v42.004c0,1.836,1.556,3.325,3.475,3.325
		c1.916,0,3.475-1.489,3.475-3.325V106.96C268.337,105.123,266.778,103.635,264.862,103.635z"/>
	<path fill="#F26822" d="M253.627,103.635c-1.921,0-3.475,1.487-3.475,3.325v42.004c0,1.836,1.554,3.325,3.475,3.325
		c1.919,0,3.476-1.489,3.476-3.325V106.96C257.103,105.123,255.546,103.635,253.627,103.635z"/>
	<path fill="#F26822" d="M242.393,103.635c-1.918,0-3.474,1.487-3.474,3.325v42.004c0,1.836,1.556,3.325,3.474,3.325
		c1.919,0,3.476-1.489,3.476-3.325V106.96C245.868,105.123,244.312,103.635,242.393,103.635z"/>
	<path fill="#F26822" d="M231.16,103.635c-1.92,0-3.477,1.487-3.477,3.325v42.004c0,1.836,1.557,3.325,3.477,3.325
		c1.919,0,3.473-1.489,3.473-3.325V106.96C234.633,105.123,233.079,103.635,231.16,103.635z"/>
	<path fill="#EA3226" d="M287.168,53.756c-1.919,0-3.475,1.487-3.475,3.322v42.004c0,1.838,1.556,3.326,3.475,3.326
		c1.917,0,3.476-1.488,3.476-3.326V57.078C290.644,55.243,289.085,53.756,287.168,53.756z"/>
	<path fill="#EA3226" d="M275.882,53.756c-1.921,0-3.476,1.487-3.476,3.322v42.004c0,1.838,1.555,3.326,3.476,3.326
		c1.917,0,3.472-1.488,3.472-3.326V57.078C279.354,55.243,277.799,53.756,275.882,53.756z"/>
	<path fill="#EA3226" d="M264.589,53.756c-1.92,0-3.475,1.487-3.475,3.322v42.004c0,1.838,1.555,3.326,3.475,3.326
		c1.917,0,3.476-1.488,3.476-3.326V57.078C268.064,55.243,266.506,53.756,264.589,53.756z"/>
	<path fill="#EA3226" d="M253.301,53.756c-1.921,0-3.477,1.487-3.477,3.322v42.004c0,1.838,1.556,3.326,3.477,3.326
		c1.919,0,3.475-1.488,3.475-3.326V57.078C256.775,55.243,255.22,53.756,253.301,53.756z"/>
	<path fill="#EA3226" d="M242.011,53.756c-1.918,0-3.474,1.487-3.474,3.322v42.004c0,1.838,1.556,3.326,3.474,3.326
		c1.919,0,3.474-1.488,3.474-3.326V57.078C245.484,55.243,243.93,53.756,242.011,53.756z"/>
	<path fill="#4D7F93" d="M148.899,196.391h6.947V157.4c0-1.837-1.555-3.325-3.471-3.325c-1.919,0-3.477,1.488-3.477,3.325V196.391z"
		/>
	<path fill="#4D7F93" d="M167.094,157.4c0-1.837-1.557-3.325-3.477-3.325c-1.916,0-3.475,1.488-3.475,3.325v38.991h6.951V157.4z"/>
	<path fill="#4D7F93" d="M171.389,196.391h6.947V157.4c0-1.837-1.551-3.325-3.475-3.325c-1.917,0-3.473,1.488-3.473,3.325V196.391z"
		/>
	<path fill="#4D7F93" d="M189.582,157.4c0-1.837-1.556-3.325-3.476-3.325c-1.919,0-3.477,1.488-3.477,3.325v38.991h6.952V157.4z"/>
	<path fill="#4D7F93" d="M200.826,157.4c0-1.837-1.558-3.325-3.478-3.325c-1.918,0-3.473,1.488-3.473,3.325v38.991h6.95V157.4z"/>
	<path fill="#4D7F93" d="M212.069,157.4c0-1.837-1.555-3.325-3.476-3.325c-1.917,0-3.475,1.488-3.475,3.325v38.991h6.95V157.4z"/>
	<path fill="#4D7F93" d="M223.313,157.4c0-1.837-1.554-3.325-3.475-3.325c-1.918,0-3.475,1.488-3.475,3.325v38.991h6.949V157.4z"/>
	<path fill="#F26822" d="M152.515,152.29c1.918,0,3.473-1.489,3.473-3.325v-27.491c0-1.836-1.555-3.324-3.473-3.324
		c-1.919,0-3.476,1.488-3.476,3.324v27.491C149.039,150.8,150.596,152.29,152.515,152.29z"/>
	<path fill="#F26822" d="M163.747,103.635c-1.916,0-3.475,1.487-3.475,3.325v42.004c0,1.836,1.559,3.325,3.475,3.325
		c1.92,0,3.477-1.489,3.477-3.325V106.96C167.224,105.123,165.667,103.635,163.747,103.635z"/>
	<path fill="#F26822" d="M174.982,152.29c1.924,0,3.474-1.489,3.474-3.325V106.96c0-1.838-1.55-3.325-3.474-3.325
		c-1.917,0-3.473,1.487-3.473,3.325v42.004C171.51,150.8,173.065,152.29,174.982,152.29z"/>
	<path fill="#F26822" d="M186.218,103.635c-1.918,0-3.476,1.487-3.476,3.325v42.004c0,1.836,1.558,3.325,3.476,3.325
		c1.92,0,3.477-1.489,3.477-3.325V106.96C189.694,105.123,188.138,103.635,186.218,103.635z"/>
	<path fill="#F26822" d="M197.45,103.635c-1.918,0-3.475,1.487-3.475,3.325v42.004c0,1.836,1.557,3.325,3.475,3.325
		c1.92,0,3.479-1.489,3.479-3.325V106.96C200.929,105.123,199.37,103.635,197.45,103.635z"/>
	<path fill="#F26822" d="M208.686,103.635c-1.917,0-3.474,1.487-3.474,3.325v42.004c0,1.836,1.557,3.325,3.474,3.325
		c1.921,0,3.478-1.489,3.478-3.325V106.96C212.163,105.123,210.606,103.635,208.686,103.635z"/>
	<path fill="#4D7F93" d="M115.164,196.391h6.953V157.4c0-1.837-1.558-3.325-3.476-3.325c-1.919,0-3.478,1.488-3.478,3.325V196.391z"
		/>
	<path fill="#4D7F93" d="M126.41,196.391h6.95V157.4c0-1.837-1.555-3.325-3.476-3.325c-1.919,0-3.475,1.488-3.475,3.325V196.391z"/>
	<path fill="#4D7F93" d="M137.655,196.391h6.947V157.4c0-1.837-1.556-3.325-3.476-3.325c-1.919,0-3.472,1.488-3.472,3.325V196.391z"
		/>
	<path fill="#F26822" d="M118.808,152.29c1.92,0,3.477-1.489,3.477-3.325v-1.365c0-1.837-1.557-3.323-3.477-3.323
		c-1.917,0-3.477,1.486-3.477,3.323v1.365C115.331,150.8,116.891,152.29,118.808,152.29z"/>
	<path fill="#F26822" d="M130.044,152.29c1.921,0,3.475-1.489,3.475-3.325v-17.331c0-1.834-1.554-3.324-3.475-3.324
		c-1.919,0-3.476,1.49-3.476,3.324v17.331C126.568,150.8,128.125,152.29,130.044,152.29z"/>
	<path fill="#F26822" d="M141.277,152.29c1.919,0,3.476-1.489,3.476-3.325v-12.978c0-1.836-1.557-3.324-3.476-3.324
		s-3.474,1.488-3.474,3.324v12.978C137.804,150.8,139.358,152.29,141.277,152.29z"/>
	<path fill="#F26822" d="M219.923,103.635c-1.917,0-3.474,1.487-3.474,3.325v42.004c0,1.836,1.557,3.325,3.474,3.325
		c1.921,0,3.475-1.489,3.475-3.325V106.96C223.397,105.123,221.844,103.635,219.923,103.635z"/>
	<path fill="#EA3226" d="M163.142,85.845c-1.916,0-3.476,1.488-3.476,3.323v9.914c0,1.838,1.56,3.326,3.476,3.326
		c1.92,0,3.475-1.488,3.475-3.326v-9.914C166.616,87.333,165.062,85.845,163.142,85.845z"/>
	<path fill="#EA3226" d="M185.563,82.782c-1.919,0-3.477,1.489-3.477,3.324v12.976c0,1.838,1.558,3.326,3.477,3.326
		c1.918,0,3.475-1.488,3.475-3.326V86.106C189.038,84.271,187.481,82.782,185.563,82.782z"/>
	<path fill="#EA3226" d="M196.85,68.269c-1.916,0-3.473,1.49-3.473,3.324v27.49c0,1.838,1.557,3.326,3.473,3.326
		c1.92,0,3.479-1.488,3.479-3.326v-27.49C200.328,69.759,198.77,68.269,196.85,68.269z"/>
	<path fill="#EA3226" d="M208.14,59.561c-1.916,0-3.473,1.487-3.473,3.323v36.198c0,1.838,1.557,3.326,3.473,3.326
		c1.922,0,3.479-1.488,3.479-3.326V62.884C211.618,61.048,210.062,59.561,208.14,59.561z"/>
	<path fill="#EA3226" d="M219.432,53.756c-1.919,0-3.476,1.487-3.476,3.322v42.004c0,1.838,1.557,3.326,3.476,3.326
		c1.92,0,3.475-1.488,3.475-3.326V57.078C222.906,55.243,221.352,53.756,219.432,53.756z"/>
	<path fill="#EA3226" d="M230.724,53.756c-1.921,0-3.478,1.487-3.478,3.322v42.004c0,1.838,1.557,3.326,3.478,3.326
		c1.918,0,3.472-1.488,3.472-3.326V57.078C234.195,55.243,232.642,53.756,230.724,53.756z"/>
	<path fill="#AE3125" d="M286.571,1.875c-1.919,0-3.476,1.488-3.476,3.324v44.006c0,1.836,1.557,3.324,3.476,3.324
		c1.918,0,3.476-1.488,3.476-3.324V5.198C290.047,3.362,288.489,1.875,286.571,1.875z"/>
	<path fill="#AE3125" d="M275.085,10.583c-1.92,0-3.475,1.488-3.475,3.323v35.298c0,1.836,1.555,3.324,3.475,3.324
		c1.918,0,3.473-1.488,3.473-3.324V13.906C278.558,12.071,277.003,10.583,275.085,10.583z"/>
	<path fill="#AE3125" d="M263.595,16.389c-1.92,0-3.475,1.49-3.475,3.324v29.492c0,1.836,1.555,3.324,3.475,3.324
		c1.918,0,3.475-1.488,3.475-3.324V19.712C267.069,17.878,265.513,16.389,263.595,16.389z"/>
	<path fill="#AE3125" d="M252.106,22.194c-1.92,0-3.478,1.489-3.478,3.324v23.686c0,1.836,1.558,3.324,3.478,3.324
		c1.919,0,3.475-1.488,3.475-3.324V25.519C255.581,23.684,254.025,22.194,252.106,22.194z"/>
	<path fill="#AE3125" d="M240.617,30.903c-1.917,0-3.473,1.489-3.473,3.324v14.978c0,1.836,1.556,3.324,3.473,3.324
		c1.92,0,3.476-1.488,3.476-3.324V34.227C244.093,32.392,242.537,30.903,240.617,30.903z"/>
	<path fill="#AE3125" d="M229.132,26.549c-1.921,0-3.478,1.489-3.478,3.325v19.331c0,1.836,1.557,3.324,3.478,3.324
		c1.918,0,3.472-1.488,3.472-3.324V29.874C232.604,28.038,231.05,26.549,229.132,26.549z"/>
</g>
<g>
</g>
<g>
</g>
<g>
</g>
<g>
</g>
<g>
</g>
<g>
</g>
</svg>
