<?xml version="1.0" encoding="utf-8"?>
<!DOCTYPE svg PUBLIC "-//W3C//DTD SVG 1.1//EN" "http://www.w3.org/Graphics/SVG/1.1/DTD/svg11.dtd">
<svg version="1.1" id="Layer_2" xmlns="http://www.w3.org/2000/svg" xmlns:xlink="http://www.w3.org/1999/xlink" x="0px" y="0px"
	 width="24px" height="24px" viewBox="0 0 24 24" enable-background="new 0 0 24 24" xml:space="preserve">
<g>
	<g display="none">
		<rect x="8" y="16" display="inline" width="1" height="1"/>
	</g>
	<g display="none">
		<rect x="10" y="16" display="inline" width="1" height="1"/>
	</g>
	<g display="none">
		<rect x="12" y="16" display="inline" width="1" height="1"/>
	</g>
	<g>
		<g>
			<rect x="6" width="1" height="1"/>
		</g>
		<g>
			<rect x="6" y="2" width="1" height="1"/>
		</g>
		<g>
			<rect x="6" y="4" width="1" height="1"/>
		</g>
		<g>
			<rect x="6" y="6" width="1" height="1"/>
		</g>
		<g>
			<rect x="6" y="8" width="1" height="1"/>
		</g>
		<g display="none">
			<rect x="14" y="16" display="inline" width="1" height="1"/>
		</g>
		<g display="none">
			<rect x="16" y="16" display="inline" width="1" height="1"/>
		</g>
		<g display="none">
			<rect x="18" y="16" display="inline" width="1" height="1"/>
		</g>
		<g display="none">
			<rect x="20" y="16" display="inline" width="1" height="1"/>
		</g>
	</g>
</g>
<g>
	<g>
		<rect x="6" y="10" width="1" height="1"/>
	</g>
	<g>
		<rect x="6" y="12" width="1" height="1"/>
	</g>
	<g>
		<rect x="6" y="14" width="1" height="1"/>
	</g>
	<g>
		<rect x="6" y="16" width="1" height="1"/>
	</g>
</g>
<g>
	<g>
		<rect x="5.975" y="18.001" width="1" height="1"/>
	</g>
	<g>
		<rect x="5.975" y="20.001" width="1" height="0.999"/>
	</g>
	<g>
		<rect x="5.975" y="22" width="1" height="1"/>
	</g>
</g>
</svg>
