<svg xmlns="http://www.w3.org/2000/svg" xmlns:xlink="http://www.w3.org/1999/xlink" width="508.047" height="397.323" viewBox="0 0 508.047 397.323"><symbol id="a" viewBox="-17.45 -19.828 34.891 39.645"><path fill-rule="evenodd" clip-rule="evenodd" fill="#4B82B3" stroke="#4B82B3" stroke-width=".5" stroke-miterlimit="10" d="M-.205 4.186c.125.072.277.072.402 0l3.33-1.921c.124-.073.202-.205.202-.349v-3.842c0-.144-.076-.276-.201-.349l-3.33-1.924c-.124-.072-.278-.072-.402 0l-3.329 1.924c-.125.072-.201.205-.201.349v3.842c0 .144.076.276.201.349l3.328 1.921z"/><path fill-rule="evenodd" clip-rule="evenodd" fill="none" stroke="#4B82B3" stroke-width=".5" stroke-miterlimit="10" d="M-.429 8.808c.262.151.584.151.846 0l6.997-4.037c.262-.152.423-.431.423-.733v-8.083c0-.302-.161-.58-.423-.731l-6.997-4.042c-.262-.151-.584-.151-.846 0l-6.997 4.042c-.262.151-.423.43-.423.731v8.083c0 .302.161.581.423.732l6.997 4.038zm-.053 1.133c.295.171.658.171.953 0l7.898-4.557c.296-.17.478-.485.478-.826v-9.121c0-.341-.182-.656-.477-.826l-7.898-4.564c-.296-.17-.659-.17-.955 0l-7.897 4.564c-.295.17-.477.485-.477.826v9.121c0 .341.182.656.478.826l7.897 4.557zm-.059 1.199c.33.192.738.192 1.068 0l8.852-5.107c.33-.191.534-.544.534-.926v-10.222c0-.382-.204-.734-.534-.926l-8.852-5.109c-.33-.191-.738-.191-1.068 0l-8.847 5.109c-.33.191-.534.544-.534.926v10.221c0 .382.204.734.534.926l8.847 5.108zm-.054 1.108c.363.21.811.21 1.175 0l9.731-5.616c.364-.21.588-.598.588-1.018v-11.237c0-.42-.224-.808-.588-1.018l-9.731-5.619c-.364-.21-.812-.209-1.176.001l-9.726 5.618c-.363.21-.587.598-.587 1.017v11.238c0 .42.224.808.588 1.018l9.726 5.616zm-.093 1.958c.422.243.941.244 1.363 0l11.285-6.512c.422-.243.682-.693.682-1.181v-13.033c0-.486-.26-.937-.682-1.18l-11.285-6.518c-.422-.243-.941-.243-1.363 0l-11.282 6.519c-.421.243-.681.693-.681 1.18v13.033c0 .487.26.938.682 1.181l11.281 6.511zm-.247 5.112c.572.331 1.279.331 1.853.001l15.346-8.854c.573-.331.927-.943.927-1.605v-17.723c0-.661-.353-1.273-.927-1.605l-15.346-8.862c-.573-.331-1.28-.331-1.854 0l-15.339 8.862c-.573.331-.926.942-.926 1.605v17.722c0 .662.353 1.274.927 1.605l15.339 8.854zm.633-13.127c.184.105.41.105.594 0l4.922-2.839c.183-.106.297-.302.297-.514v-5.683c0-.212-.113-.408-.297-.515l-4.922-2.841c-.184-.106-.41-.106-.594 0l-4.919 2.842c-.184.106-.297.303-.297.515v5.683c0 .212.113.408.297.515l4.919 2.837z"/></symbol><path opacity=".05" fill="#fff" d="M480.744 15.207l4.292 3.862-53.208 30.895-11.156-16.735m-16.335 45.439l6.895 11.63 26.174-32.61-5.578-7.724m-48.488 3.862l-30.036 36.472 22.313 25.746 28.72-37.376m-121.213 22.684l57.157-24.658 13.023 13.604-45.913 36.044m46.296 48.208l-21.409-22.462 43.339-36.044 10.298 13.302m99.121-106.415l-47.63 34.757-5.578-7.724 53.208-30.895m-147.949 54.288l3.213 3.204 42.766-22.735m-137.464 99.787l32.919 27.311 53.764-28.644-24.774-25.856m-94.837-3.137l69.915-21.769-3.947-4.783-68.226 24.458m94.829 87.106l12.016 9.44 35.614-42.051m-74.252 65.571l-.477.946-39.839-33.906 40.335-27.329 26.603 27.329m-133.018-74.662l31.324 30.466 42.051-10.298-32.928-30.518m-61.472 2.627v10.298l21.025-2.575v-6.436m126.153 129.156l-3.862 9.011-25.541-7.986 1.083-1.025 8.206-14.051m7.241 37.652l-30.411-9.441-8.636 8.583 35.614 18.45 3.433-9.01m7.089 12.849l-10.522-3.839-7.294 3.839 11.156 8.605 4.72-3.433m-4.72 3.433l-4.719 3.433 24.028 15.447 20.639 18.085 30.423 29.116h1.718l-8.134-8.352-18.468-18.239-12.019-11.198-11.598-10.076m-85.804-105.75v30.036l33.261 17.925 13.714-13.039m-67.572-1.025l20.597 12.445v-16.306l-13.303-13.302m29.608 45.913l-26.174-9.869 9.869-6.436 24.458 10.298m18.022 29.178l-35.197-18.88 9.208-4.388 36.287 16.224m-51.92-9.943l20.167 16.129-21.331 3.155-14.712-13.453m-3.005-17.593l25.306 9.869-6.425 1.893-45.055-11.762zm-11.917-16.735l-8.525 5.872.873.779 19.569 10.084 8.154-4.291m-1.717-72.506l4.291 12.003-5.869 24.459-15.586-15.019 13.813-9.44m23.823-15.87l7.535 9.249-16.421 14.346-7.295-7.725m-1.667-38.565l-9.489 15.61 6.865 10.952 11.28-15.556m198.976-153.947l11.156 16.735-27.491 28.704-20.997-24.842m27.892 36.472l-25.317 39.048-10.313-13.29 27.048-35.627 1.687-1.761m-96.946 47.674l24.887 25.746 43.324-36.032-22.298-25.758m-13.023-13.604l43.059-22.868-30.036 36.472-13.023-13.604zm-100.216 47.526l-70.45 21.935 32.928 30.518 61.789-27.463zm-110.897 25.849l.43 6.326 40.017-10.24-2.258-2.094zm-21.025-1.287l-20.856-6.521.259 9.953 20.597 6.866zm-36.044-2.575v11.111l-26.175-24.842zm-26.175-13.731l-2.576 9.44-19.308 6.436-8.736-4.291zm6.873 25.44l3.425-1.411-12.745-15.059zm3.425-1.411l15.877 25.458 35.898-22.791.146-.092m4.29 23.6l-31.323 13.731-4.764-7.638 31.797-29.693zm10.719-9.028l6.446 23.617 8.589-9.02zm24.102 40.996l5.084-12.659-14.151-13.74zm8.947 9.176l4.291-9.176-8.154-12.659zm4.291-9.176l3.514 22.955 3.351-12.003zm-26.281 49.985l15.982-17.59-10.298-9.011-21.884 16.307-9.868 2.298m13.748-33.37l-16.753-12.696h-3.003l-20.168 15.029-9.868 4.065 23.6 7.938 28.748-14.16m-66.88-3.103v1.393l24.4 3.867 20.168-15.029-21.025-14.16zm253.061-22.922l-21.409-22.462-53.636 28.882 26.603 27.329zm-75.045-77.815l4.482 4.617 57.03-24.791-3.067-3.204zm-75.091 67.368l34.756 44.196 38.19-26.174 2.145-1.155-32.706-27.314zm74.715 78.203l.357-1.047 26.622-32.96 12.016 9.44-18.881 38.618zm16.252 23.062l-25.541-7.986-13.714 13.039 30.244 9.537zm-16.252-23.062l-7.706 13.193-1.583 1.883-46.975-34.922 16.305-14.161m-16.305 44.197v16.306l24.458 10.298 8.803-8.679zm-7.295-37.761l-4.291-12.003 11.586-15.556 8.921 11.689zm0 0l7.295 7.725v30.036l-13.303-13.302zm70.8 73.805l-3.433 9.01 10.522 3.839.635-1.693zm5.149 18.021l-4.72 3.433 21.39 17.799 42.565 39.93 7.499 7.495-6.66-9.013-22.314-22.742-19.127-17.301zm-15.876-5.172l-10.298 6.889 7.294 4.719 9.441.43 4.29-3.433zm-10.298 6.567l-21.455-.536-20.167-16.129 6.425-1.893zm-57.498-10.834l14.712 13.453-12.945 1.916-18.438-10.404zm75.09.428l-7.294 3.839-36.287-16.379 8.507-5.63zm-89.776-144.292l-11.828 11.979 14.643 13.884 8.438-15.176zm11.253 10.845l9.489 12.067-9.489 15.61-8.154-12.659zm-10.875-10.577l-9.722-9.455-16.743 6.713 15.035 14.597zm-20.449-19.889l-20.778 2.232 14.762 14.915 16.743-6.713zm-41.881-14.244l.259 9.953-15.251 4.781-.196-10.788zm-14.992 14.734l15.251-4.781 20.844 6.523zm-58.124-12.505h1.133l8.103 4.292-23.396 15.876-9.868-.858zm123.578 95.141l2.233-1.522 16.219-14.285-3.863-21.835-5.084 12.659-22.807 8.795zm31.325 58.475l-8.154 4.291 25.306 9.869 9.022-4.291zm-10.728-18.881l-9.343 6.437 20.071 12.444 9.869-6.436zm-34.113-9.44l-4.935 2.844 21.18 18.905 8.525-5.872zm41.407-7.723l-7.294 17.163-31.752-12.229 7.8-2.363 15.952-17.559zm-1.634-24.459l-13.813 9.254-10.211-8.748 16.432-14.285 4.078-9.176zm-39.559-14.16l13.302 16.188-19.738 14.708-30.465-13.732 8.153-3.004zm33.899 55.782l-31.449-12.229-2.45 2.789 24.556 15.877m-40.86-29.025l-4.077 2.424-.391.449 20.558 10.275 2.361-2.789zm-20.597-15.827l-7.294 4.518 23.423 14.182.391-.709 4.077-2.164zm-10.737 8.507l-13.519-13.083 2.801-1.633 14.161 10.727zm-19.242-28.977v1.393l14.532 7.932-6.008 4.936-14.762-9.194zm14.532-38.377l4.247 6.81-18.723 17.486 9.327-19.288zm-11.155-17.887l-17.467 2.863 21.756 9.455.584.475zm4.873 12.793l6.282 5.094-5.149 5.008-4.876 10.084-2.899-2.135zm-6.642 18.051l-26.124-19.245-12.481 11.296 28.745 23.073zm-38.605 7.069l-1.679 12.659 8.153 7.085h6.007l8.683-4.514zm-1.679 12.659v9.176l8.153-2.091zm1.679-27.677v15.018l21.164 15.23 7.581-7.175zm35.223 23.073l1.774 10.296-1.345 1.393-4.893 3.674-7.57-4.548 8.172-8.715 4.291-4.577 1.401-1.308zm-2.996-52.128l8.147 6.16-17.467 2.863-1.844-4.427zm0 0l8.147 5.928-4.722-7.339zm-6.873-25.44l-2.576 9.44 12.874 14.589 15.535.49-25.707-24.355zm66.509 50.204l10.719-9.028-14.571-14.147zm25.754 5.569l-8.589 9.02-27.463 13.302h3.003l16.753 12.696 2.556.176 22.807-8.795zm-3.793 76.384l-26.251-7.996 18.754 10.359zm-16.383-10.294l-9.868 2.298-20.597-16.03zm5.141-80.687l-10.719 9.028-31.323 13.731 21.025 14.16 27.463-13.516zm-51.053 8.311l4.247 6.81 31.677-29.633zm-14.476 24.296l-1.83 3.785 1.774 10.296 23.671-23.929-4.892-7.638zm24.203 19.309l-24.259-3.835 14.532 7.932zm5.571 14.933l-15.298-10.836-5.955 4.772 14.108 10.891zm8.175-2.898l-23.473-7.938 15.447 10.942zm-15.32 7.725l-3.443 3.989 1.726 1.588 21.664 12.603 3.476-3.998zm23.423 14.182l-3.476 3.998 1.738 1.009 17.361 7.98 4.935-2.712zm-3.476 3.998l15.667 15.717 3.432-6.728zm40.279 28.026l-1.442.993-21.025 2.575 16.735 7.295 25.884-.149-19.233-9.935zm0 0l-1.157.796-21.31 2.604-17.592-6.698 15.447-9.011 3.432-6.728zm39.323 22.625l-15.876 5.831-59.859-22.377-1.564-1.224 32.244 6.181zm-15.876 5.831l-16.671 4.965-42.873-27.26zm1.767 15.369l-18.438-10.404-3.774 1.083-40.486 8.97-1.216.859 14.088 6.864 49.826-7.372m-63.914.508l-35.258 24.887 49.346-17.83zm.136-.11l-35.394 24.997-32.935-11.179 3.327-2.123 36.474-29.608zm-35.394 24.997l-32.935-11.179-16.839 10.749-2.059.175 5.883 2.469zm-32.935-11.309l-25.421-14.008-17.593 11.156-2.081.64 26.197 13.266 2.121-.307zm-49.706-30.43l-9.185 20.284 13.796 7.934 2.005-.785 17.669-11.011zm-9.185 20.284l-.282 7.817 5.295 2.819 8.783-2.702zm-.282 7.817l-.2 7.62 5.356-4.764zm0 7.62l.282 16.745 1.398 1.011 10.116-9.524zm12.088 8.232l8.792 1.218 24.921-1.234-24.669-.763zm-.292 0l-10.116 9.524 3.751.704 15.584-9.01zm28.479-2.469l5.526 2.453-26.078-.763zm-20.002 1.69l-8.477.66-11.996-8.113 5.356-4.764zm66.259-198.113l5.2 12.793 5.955 5.094zm4.873 12.793l-22.34-9.93-10.426 8.736 26.124 19.245zm-24.184-14.357l2.126 4.381-23.189 20.078.465-6.437zm-20.598 18.022l-.465 6.437.233 15.018-6.204-4.291zm38.14 14.386l-9.86 15.124 2.616 1.817 5.692-5.602 4.451-9.204zm-70.685 152.313l-8.922 2.739 15.117 11.753 20.002-1.226zm50.304-46.888l-1.882-.952-30.894-21.026s-21.219 38.618-21.294 38.781l-.845 1.867 24.285 16.422 30.63-35.092zm0 0l34.74 17.3-36.934 29.882-3.015 1.918-25.421-14.008zm79.395-5.196l-15.411 1.189 31.968 6.059zm-17.77-6.913l-21.884-5.578-3.452 6.821 12.463 5.193zm-21.884-5.578l-19.36-12.626-3.811 15.63 12.015 6.436zm-20.968-10.029l-5.544 12.818-15.968-13.087 7.704-15.402zm-18.081-11.854l-8.58 14.589-10.336-14.16 4.327-17.164zm-14.589-16.735l-21.882 1.288 6.436 9.011 8.153 6.865zm8.154-16.306l3.266 8.5 11.394-7.979zm14.66.521l4.22 19.666 9.012-10.318 2.347-1.369zm20.04 31.355l-4.373-23.052 13.431 12.759zm32.448 3.898l-7.933 9.121-13.528 9.928 21.681 5.679 15.447-9.011zm.22 24.728l-10.936 5.569 12.652 2.35 15.876-1.221zm-23.61-38.919l15.457 23.312 7.933-9.121-21.461-12.764zm-18.012 20.468l19.738 12.873 13.552-10.298-15.278-23.043zm-3.433 15.662l-3.433.215 6.866-15.63.378.001zm16.735 2.657l2.984 1.375 3.452-6.821zm-22.784-78.06l-7.581 7.175 2.025 3.64 8.172-8.715zm-16.264 11.689v5.737l10.297-6.172.411-.439-2.025-3.64zm14.66 6.522l3.618-2.848-7.57-4.548-.411.439-10.297 6.172zm15.579 7.8l2.773-1.427-14.734-9.221-3.618 2.848zm-42.721-34.08l-5.97-4.277-3.512 16.716 7.804.234zm-5.97-4.277l-12.014.429-6.613 8.022 15.115 8.265zm-12.014.429l-6.613 8.022-16.987-4.16 4.894-4.934zm-25.744-14.589l-.111.144-2.518 3.289 4.773 15.018 4.894-4.934m-.175-19.525l-9.438-.857-6.008 6.436v24.029l5.807-19.852 2.665-3.604zm-4.719 24.459l-10.627 4.938 5.94-19.956zm16.987 4.16l-7.139 12.286-20.475-11.508 10.627-4.938zm67.318 30.085l-2.347 1.369-17.466 19.034 14.09 15.992 1.23-2.844 8.954-10.175zm-15.695-7.815l-22.698 15.621 14.589 16.735 12.445-12.985zm-14.544-.685l3.189 8.5-11.343 7.806-18.879-6.437zm0-6.001h-6.007l-8.03 2.06-12.896 13.703 26.933-9.762zm-14.16-7.085l-7.685-.234-5.088 23.082 12.773-13.632zm-7.804-.234l-4.969 23.082-17.285-19.061 7.139-12.286zm-22.254 4.021l-1.918 3.298-18.657-14.595zm17.185 19.168l-2.903 7.677 21.782-1.24zm0 0l-17.185-19.168-1.918 3.298 4.912 3.674 11.288 19.873zm11.586 23.601l2.966-.129 4.327-17.25zm25.849-4.567l.306.223-7.704 15.5-5.032 3.004 8.463-14.589zm-4.659 43.708l-2.052-.992-30.724-20.986 3.433-24.028 8.153 6.865 2.966-.129 10.336 14.149 5.149-2.864 9.442 7.91zm34.627 17.468l-34.627-17.468 6.703-20.075 6.434 5.392h3.433l12.015 6.436 4.72-3.994 15.447 6.568 1.816-.891 12.552 2.773zm73.833 7.142l-45.119-28.566-28.462 21.236 28.241 18.132 1.08-.749 40.486-8.97zm163.374-127.537l-75.045 6.42 26.603 27.329zm-108.085-20.937l-72.945-20.086 30.894 30.576zm-143.368 93.551l8.204 22.066-12.015-6.436zm-15.28-12.92l8.128 28.335-15.968-13.087zm112.519-33.288l-31.967-.381 13.29 16.198 2.245-2.038zm-51.276-13.253l16.753 12.696 2.556.176 22.807-8.795"/><path opacity=".05" fill="#fff" d="M172.657 174.187l-48.36-.644 20.897 14.16zm-21.601-37.883l-26.759 37.239-9.139-14.448zm-40.246 100.438l-24.274-2.973 14.09 15.992 1.23-2.844zm-58.3-5.271l29.343 46.006-2.052-.992-30.724-20.986zm300.794-141.173l-70.18 11.054 24.267 24.99zm0 0l22.313 25.746 27.033-35.615 1.687-1.761zm-271.451 187.179l-1.882 47.107 36.509-29.639z"/><use xlink:href="#a" width="34.891" height="39.645" x="-17.45" y="-19.828" transform="matrix(-1.177 0 0 -1.177 22.465 354.053)" overflow="visible" opacity=".85"/><use xlink:href="#a" width="34.891" height="39.645" x="-17.45" y="-19.828" transform="matrix(-.609 0 0 -.609 16.523 316.431)" overflow="visible" opacity=".85"/><use xlink:href="#a" width="34.891" height="39.645" x="-17.45" y="-19.828" transform="matrix(-.609 0 0 -.609 26.936 296.147)" overflow="visible" opacity=".85"/><use xlink:href="#a" width="34.891" height="39.645" x="-17.45" y="-19.828" transform="matrix(-.609 0 0 -.609 51.223 312.887)" overflow="visible" opacity=".85"/><use xlink:href="#a" width="34.891" height="39.645" x="-17.45" y="-19.828" transform="matrix(-.609 0 0 -.609 76.644 326.577)" overflow="visible" opacity=".85"/><use xlink:href="#a" width="34.891" height="39.645" x="-17.45" y="-19.828" transform="matrix(-.609 0 0 -.609 109.579 337.629)" overflow="visible" opacity=".85"/><use xlink:href="#a" width="34.891" height="39.645" x="-17.45" y="-19.828" transform="matrix(-.609 0 0 -.609 58.926 337.629)" overflow="visible" opacity=".85"/><use xlink:href="#a" width="34.891" height="39.645" x="-17.45" y="-19.828" transform="matrix(-.609 0 0 -.609 63.702 341.301)" overflow="visible" opacity=".85"/><use xlink:href="#a" width="34.891" height="39.645" x="-17.45" y="-19.828" transform="matrix(-.609 0 0 -.609 32.978 324.247)" overflow="visible" opacity=".85"/><use xlink:href="#a" width="34.891" height="39.645" x="-17.45" y="-19.828" transform="matrix(-.609 0 0 -.609 22.159 327.551)" overflow="visible" opacity=".85"/><use xlink:href="#a" width="34.891" height="39.645" x="-17.45" y="-19.828" transform="matrix(-.609 0 0 -.609 16.523 333.543)" overflow="visible" opacity=".85"/><use xlink:href="#a" width="34.891" height="39.645" x="-17.45" y="-19.828" transform="matrix(-.609 0 0 -.609 27.506 341.301)" overflow="visible" opacity=".85"/><use xlink:href="#a" width="34.891" height="39.645" x="-17.45" y="-19.828" transform="matrix(-.609 0 0 -.609 14.455 348.617)" overflow="visible" opacity=".85"/><use xlink:href="#a" width="34.891" height="39.645" x="-17.45" y="-19.828" transform="matrix(-.609 0 0 -.609 82.545 277.874)" overflow="visible" opacity=".85"/><use xlink:href="#a" width="34.891" height="39.645" x="-17.45" y="-19.828" transform="matrix(-.609 0 0 -.609 50.232 254.978)" overflow="visible" opacity=".85"/><use xlink:href="#a" width="34.891" height="39.645" x="-17.45" y="-19.828" transform="matrix(-.609 0 0 -.609 53.593 229.754)" overflow="visible" opacity=".85"/><use xlink:href="#a" width="34.891" height="39.645" x="-17.45" y="-19.828" transform="matrix(-.912 0 0 -.912 25.871 153.939)" overflow="visible" opacity=".85"/><use xlink:href="#a" width="34.891" height="39.645" x="-17.45" y="-19.828" transform="matrix(-.609 0 0 -.609 10.722 185.395)" overflow="visible" opacity=".85"/><use xlink:href="#a" width="34.891" height="39.645" x="-17.45" y="-19.828" transform="matrix(-.609 0 0 -.609 30.297 200.575)" overflow="visible" opacity=".85"/><use xlink:href="#a" width="34.891" height="39.645" x="-17.45" y="-19.828" transform="matrix(-.609 0 0 -.609 57.265 174.401)" overflow="visible" opacity=".85"/><use xlink:href="#a" width="34.891" height="39.645" x="-17.45" y="-19.828" transform="matrix(-1.013 0 0 -1.013 86.72 109.608)" overflow="visible" opacity=".85"/><use xlink:href="#a" width="34.891" height="39.645" x="-17.45" y="-19.828" transform="matrix(-.609 0 0 -.609 130.025 119.393)" overflow="visible" opacity=".85"/><use xlink:href="#a" width="34.891" height="39.645" x="-17.45" y="-19.828" transform="matrix(-.609 0 0 -.609 115.687 123.553)" overflow="visible" opacity=".85"/><use xlink:href="#a" width="34.891" height="39.645" x="-17.45" y="-19.828" transform="matrix(-.609 0 0 -.609 150.774 136.304)" overflow="visible" opacity=".85"/><use xlink:href="#a" width="34.891" height="39.645" x="-17.45" y="-19.828" transform="matrix(-.609 0 0 -.609 181.769 166.847)" overflow="visible" opacity=".85"/><use xlink:href="#a" width="34.891" height="39.645" x="-17.45" y="-19.828" transform="matrix(-.609 0 0 -.609 170.793 125.484)" overflow="visible" opacity=".85"/><use xlink:href="#a" width="34.891" height="39.645" x="-17.45" y="-19.828" transform="matrix(-1.013 0 0 -1.013 211.549 122.896)" overflow="visible" opacity=".85"/><use xlink:href="#a" width="34.891" height="39.645" x="-17.45" y="-19.828" transform="matrix(-.609 0 0 -.609 115.687 158.746)" overflow="visible" opacity=".85"/><use xlink:href="#a" width="34.891" height="39.645" x="-17.45" y="-19.828" transform="matrix(-.609 0 0 -.609 94.488 134.253)" overflow="visible" opacity=".85"/><use xlink:href="#a" width="34.891" height="39.645" x="-17.45" y="-19.828" transform="matrix(-.609 0 0 -.609 32.57 140.976)" overflow="visible" opacity=".85"/><use xlink:href="#a" width="34.891" height="39.645" x="-17.45" y="-19.828" transform="matrix(-.609 0 0 -.609 73.965 253.004)" overflow="visible" opacity=".85"/><use xlink:href="#a" width="34.891" height="39.645" x="-17.45" y="-19.828" transform="matrix(-.609 0 0 -.609 95.082 263.2)" overflow="visible" opacity=".85"/><use xlink:href="#a" width="34.891" height="39.645" x="-17.45" y="-19.828" transform="matrix(-.609 0 0 -.609 110.007 269.445)" overflow="visible" opacity=".85"/><use xlink:href="#a" width="34.891" height="39.645" x="-17.45" y="-19.828" transform="matrix(-.609 0 0 -.609 130.455 271.804)" overflow="visible" opacity=".85"/><use xlink:href="#a" width="34.891" height="39.645" x="-17.45" y="-19.828" transform="matrix(-.609 0 0 -.609 144.972 273.267)" overflow="visible" opacity=".85"/><use xlink:href="#a" width="34.891" height="39.645" x="-17.45" y="-19.828" transform="matrix(-1.142 0 0 -1.142 115.889 295.292)" overflow="visible" opacity=".85"/><use xlink:href="#a" width="34.891" height="39.645" x="-17.45" y="-19.828" transform="matrix(-.609 0 0 -.609 145.837 312.887)" overflow="visible" opacity=".85"/><use xlink:href="#a" width="34.891" height="39.645" x="-17.45" y="-19.828" transform="matrix(-.609 0 0 -.609 209.226 312.749)" overflow="visible" opacity=".85"/><use xlink:href="#a" width="34.891" height="39.645" x="-17.45" y="-19.828" transform="matrix(-.609 0 0 -.609 190.311 302.087)" overflow="visible" opacity=".85"/><use xlink:href="#a" width="34.891" height="39.645" x="-17.45" y="-19.828" transform="matrix(-.609 0 0 -.609 206.952 297.563)" overflow="visible" opacity=".85"/><use xlink:href="#a" width="34.891" height="39.645" x="-17.45" y="-19.828" transform="matrix(-.609 0 0 -.609 222.86 291.605)" overflow="visible" opacity=".85"/><use xlink:href="#a" width="34.891" height="39.645" x="-17.45" y="-19.828" transform="matrix(-.609 0 0 -.609 243.027 307.524)" overflow="visible" opacity=".85"/><use xlink:href="#a" width="34.891" height="39.645" x="-17.45" y="-19.828" transform="matrix(-.609 0 0 -.609 222.002 311.346)" overflow="visible" opacity=".85"/><use xlink:href="#a" width="34.891" height="39.645" x="-17.45" y="-19.828" transform="matrix(-.609 0 0 -.609 157.362 321.137)" overflow="visible" opacity=".85"/><use xlink:href="#a" width="34.891" height="39.645" x="-17.45" y="-19.828" transform="matrix(-.609 0 0 -.609 160.722 271.803)" overflow="visible" opacity=".85"/><use xlink:href="#a" width="34.891" height="39.645" x="-17.45" y="-19.828" transform="matrix(-.609 0 0 -.609 264.481 308.926)" overflow="visible" opacity=".85"/><use xlink:href="#a" width="34.891" height="39.645" x="-17.45" y="-19.828" transform="matrix(-.837 0 0 -.837 281.368 312.367)" overflow="visible" opacity=".85"/><use xlink:href="#a" width="34.891" height="39.645" x="-17.45" y="-19.828" transform="matrix(-.609 0 0 -.609 291.845 306.561)" overflow="visible" opacity=".85"/><use xlink:href="#a" width="34.891" height="39.645" x="-17.45" y="-19.828" transform="matrix(-.609 0 0 -.609 286.07 289.018)" overflow="visible" opacity=".85"/><use xlink:href="#a" width="34.891" height="39.645" x="-17.45" y="-19.828" transform="matrix(-.871 0 0 -.871 295.755 266.611)" overflow="visible" opacity=".85"/><use xlink:href="#a" width="34.891" height="39.645" x="-17.45" y="-19.828" transform="matrix(-.609 0 0 -.609 317.26 217.31)" overflow="visible" opacity=".85"/><use xlink:href="#a" width="34.891" height="39.645" x="-17.45" y="-19.828" transform="matrix(-.609 0 0 -.609 305.245 207.884)" overflow="visible" opacity=".85"/><use xlink:href="#a" width="34.891" height="39.645" x="-17.45" y="-19.828" transform="matrix(-1.217 0 0 -1.217 276.68 181.081)" overflow="visible" opacity=".85"/><use xlink:href="#a" width="34.891" height="39.645" x="-17.45" y="-19.828" transform="matrix(-.609 0 0 -.609 332.285 151.088)" overflow="visible" opacity=".85"/><use xlink:href="#a" width="34.891" height="39.645" x="-17.45" y="-19.828" transform="matrix(-.609 0 0 -.609 375.286 116.044)" overflow="visible" opacity=".85"/><use xlink:href="#a" width="34.891" height="39.645" x="-17.45" y="-19.828" transform="matrix(-.609 0 0 -.609 351.413 90.744)" overflow="visible" opacity=".85"/><use xlink:href="#a" width="34.891" height="39.645" x="-17.45" y="-19.828" transform="matrix(-.609 0 0 -.609 382.991 53.825)" overflow="visible" opacity=".85"/><use xlink:href="#a" width="34.891" height="39.645" x="-17.45" y="-19.828" transform="matrix(-.609 0 0 -.609 404.337 81.254)" overflow="visible" opacity=".85"/><use xlink:href="#a" width="34.891" height="39.645" x="-17.45" y="-19.828" transform="matrix(-.609 0 0 -.609 410.379 92.044)" overflow="visible" opacity=".85"/><use xlink:href="#a" width="34.891" height="39.645" x="-17.45" y="-19.828" transform="matrix(-.609 0 0 -.609 431.3 50.002)" overflow="visible" opacity=".85"/><use xlink:href="#a" width="34.891" height="39.645" x="-17.45" y="-19.828" transform="matrix(-.795 0 0 -.795 420.594 33.228)" overflow="visible" opacity=".85"/><use xlink:href="#a" width="34.891" height="39.645" x="-17.45" y="-19.828" transform="matrix(-.609 0 0 -.609 479.703 15.207)" overflow="visible" opacity=".85"/><use xlink:href="#a" width="34.891" height="39.645" x="-17.45" y="-19.828" transform="matrix(-1.092 0 0 -1.092 489.009 21.623)" overflow="visible" opacity=".85"/><use xlink:href="#a" width="34.891" height="39.645" x="-17.45" y="-19.828" transform="matrix(-.609 0 0 -.609 439.004 59.263)" overflow="visible" opacity=".85"/><use xlink:href="#a" width="34.891" height="39.645" x="-17.45" y="-19.828" transform="matrix(-.609 0 0 -.609 385.914 130.865)" overflow="visible" opacity=".85"/><use xlink:href="#a" width="34.891" height="39.645" x="-17.45" y="-19.828" transform="matrix(-.929 0 0 -.929 306.784 126.921)" overflow="visible" opacity=".85"/><use xlink:href="#a" width="34.891" height="39.645" x="-17.45" y="-19.828" transform="matrix(-.609 0 0 -.609 245.488 156.526)" overflow="visible" opacity=".85"/><use xlink:href="#a" width="34.891" height="39.645" x="-17.45" y="-19.828" transform="matrix(-.609 0 0 -.609 283.123 102.667)" overflow="visible" opacity=".85"/><use xlink:href="#a" width="34.891" height="39.645" x="-17.45" y="-19.828" transform="matrix(-.609 0 0 -.609 277.754 241.483)" overflow="visible" opacity=".85"/><use xlink:href="#a" width="34.891" height="39.645" x="-17.45" y="-19.828" transform="matrix(-.609 0 0 -.609 268.976 257.402)" overflow="visible" opacity=".85"/><use xlink:href="#a" width="34.891" height="39.645" x="-17.45" y="-19.828" transform="matrix(-.609 0 0 -.609 240.753 207.931)" overflow="visible" opacity=".85"/><use xlink:href="#a" width="34.891" height="39.645" x="-17.45" y="-19.828" transform="matrix(-.907 0 0 -.907 221.994 225.131)" overflow="visible" opacity=".85"/><use xlink:href="#a" width="34.891" height="39.645" x="-17.45" y="-19.828" transform="matrix(-.609 0 0 -.609 278.265 97.356)" overflow="visible" opacity=".85"/><use xlink:href="#a" width="34.891" height="39.645" x="-17.45" y="-19.828" transform="matrix(-.609 0 0 -.609 334.558 72.485)" overflow="visible" opacity=".85"/><use xlink:href="#a" width="34.891" height="39.645" x="-17.45" y="-19.828" transform="matrix(-.609 0 0 -.609 339.336 76.308)" overflow="visible" opacity=".85"/><use xlink:href="#a" width="34.891" height="39.645" x="-17.45" y="-19.828" transform="matrix(-1.041 0 0 -1.041 354.257 178.792)" overflow="visible" opacity=".85"/><use xlink:href="#a" width="34.891" height="39.645" x="-17.45" y="-19.828" transform="matrix(-1.113 0 0 -1.113 354.553 375.273)" overflow="visible" opacity=".85"/><use xlink:href="#a" width="34.891" height="39.645" x="-17.45" y="-19.828" transform="matrix(-.368 0 0 -.368 353.508 376.32)" overflow="visible" opacity=".85"/><use xlink:href="#a" width="34.891" height="39.645" x="-17.45" y="-19.828" transform="matrix(-.368 0 0 -.368 331.341 343.035)" overflow="visible" opacity=".85"/><use xlink:href="#a" width="34.891" height="39.645" x="-17.45" y="-19.828" transform="matrix(-.368 0 0 -.368 304.977 331.596)" overflow="visible" opacity=".85"/><use xlink:href="#a" width="34.891" height="39.645" x="-17.45" y="-19.828" transform="matrix(-.368 0 0 -.368 307.86 324.401)" overflow="visible" opacity=".85"/><use xlink:href="#a" width="34.891" height="39.645" x="-17.45" y="-19.828" transform="matrix(-.368 0 0 -.368 295.204 299.422)" overflow="visible" opacity=".85"/><use xlink:href="#a" width="34.891" height="39.645" x="-17.45" y="-19.828" transform="matrix(-.368 0 0 -.368 274.89 302.009)" overflow="visible" opacity=".85"/><use xlink:href="#a" width="34.891" height="39.645" x="-17.45" y="-19.828" transform="matrix(-.368 0 0 -.368 246.46 278.873)" overflow="visible" opacity=".85"/><use xlink:href="#a" width="34.891" height="39.645" x="-17.45" y="-19.828" transform="matrix(-.368 0 0 -.368 238.247 286.069)" overflow="visible" opacity=".85"/><use xlink:href="#a" width="34.891" height="39.645" x="-17.45" y="-19.828" transform="matrix(-.368 0 0 -.368 213.04 274.722)" overflow="visible" opacity=".85"/><use xlink:href="#a" width="34.891" height="39.645" x="-17.45" y="-19.828" transform="matrix(-.368 0 0 -.368 203.979 278.003)" overflow="visible" opacity=".85"/><use xlink:href="#a" width="34.891" height="39.645" x="-17.45" y="-19.828" transform="matrix(-.368 0 0 -.368 221.143 268.802)" overflow="visible" opacity=".85"/><use xlink:href="#a" width="34.891" height="39.645" x="-17.45" y="-19.828" transform="matrix(-.545 0 0 -.545 220.675 250.677)" overflow="visible" opacity=".85"/><use xlink:href="#a" width="34.891" height="39.645" x="-17.45" y="-19.828" transform="matrix(-.368 0 0 -.368 208.39 238.949)" overflow="visible" opacity=".85"/><use xlink:href="#a" width="34.891" height="39.645" x="-17.45" y="-19.828" transform="matrix(-.368 0 0 -.368 193.956 222.529)" overflow="visible" opacity=".85"/><use xlink:href="#a" width="34.891" height="39.645" x="-17.45" y="-19.828" transform="matrix(-.631 0 0 -.631 181.094 216.549)" overflow="visible" opacity=".85"/><use xlink:href="#a" width="34.891" height="39.645" x="-17.45" y="-19.828" transform="matrix(-.368 0 0 -.368 167.065 200.575)" overflow="visible" opacity=".85"/><use xlink:href="#a" width="34.891" height="39.645" x="-17.45" y="-19.828" transform="matrix(-.636 0 0 -.636 145.996 187.353)" overflow="visible" opacity=".85"/><use xlink:href="#a" width="34.891" height="39.645" x="-17.45" y="-19.828" transform="matrix(-.368 0 0 -.368 124.412 171.611)" overflow="visible" opacity=".85"/><use xlink:href="#a" width="34.891" height="39.645" x="-17.45" y="-19.828" transform="matrix(-.368 0 0 -.368 98.422 170.577)" overflow="visible" opacity=".85"/><use xlink:href="#a" width="34.891" height="39.645" x="-17.45" y="-19.828" transform="matrix(-.368 0 0 -.368 66.941 126.424)" overflow="visible" opacity=".85"/><use xlink:href="#a" width="34.891" height="39.645" x="-17.45" y="-19.828" transform="matrix(-.368 0 0 -.368 58.886 121.482)" overflow="visible" opacity=".85"/><use xlink:href="#a" width="34.891" height="39.645" x="-17.45" y="-19.828" transform="matrix(-.368 0 0 -.368 46.789 174.893)" overflow="visible" opacity=".85"/><use xlink:href="#a" width="34.891" height="39.645" x="-17.45" y="-19.828" transform="matrix(-.368 0 0 -.368 39.02 183.39)" overflow="visible" opacity=".85"/><use xlink:href="#a" width="34.891" height="39.645" x="-17.45" y="-19.828" transform="matrix(-.368 0 0 -.368 25.519 179.043)" overflow="visible" opacity=".85"/><use xlink:href="#a" width="34.891" height="39.645" x="-17.45" y="-19.828" transform="matrix(-.368 0 0 -.368 10.482 160.361)" overflow="visible" opacity=".85"/><use xlink:href="#a" width="34.891" height="39.645" x="-17.45" y="-19.828" transform="matrix(-.368 0 0 -.368 45.453 142.319)" overflow="visible" opacity=".85"/><use xlink:href="#a" width="34.891" height="39.645" x="-17.45" y="-19.828" transform="matrix(-.697 0 0 -.697 62.532 157.38)" overflow="visible" opacity=".85"/><use xlink:href="#a" width="34.891" height="39.645" x="-17.45" y="-19.828" transform="matrix(-.368 0 0 -.368 63.683 199.779)" overflow="visible" opacity=".85"/><use xlink:href="#a" width="34.891" height="39.645" x="-17.45" y="-19.828" transform="matrix(-.368 0 0 -.368 49.561 213.614)" overflow="visible" opacity=".85"/><use xlink:href="#a" width="34.891" height="39.645" x="-17.45" y="-19.828" transform="matrix(-.368 0 0 -.368 46.445 223.301)" overflow="visible" opacity=".85"/><use xlink:href="#a" width="34.891" height="39.645" x="-17.45" y="-19.828" transform="matrix(-.368 0 0 -.368 65.055 238.949)" overflow="visible" opacity=".85"/><use xlink:href="#a" width="34.891" height="39.645" x="-17.45" y="-19.828" transform="matrix(-.368 0 0 -.368 75.849 199.162)" overflow="visible" opacity=".85"/><use xlink:href="#a" width="34.891" height="39.645" x="-17.45" y="-19.828" transform="matrix(-.368 0 0 -.368 84.692 193.698)" overflow="visible" opacity=".85"/><use xlink:href="#a" width="34.891" height="39.645" x="-17.45" y="-19.828" transform="matrix(-.368 0 0 -.368 92.084 186.239)" overflow="visible" opacity=".85"/><use xlink:href="#a" width="34.891" height="39.645" x="-17.45" y="-19.828" transform="matrix(-.368 0 0 -.368 76.609 151.868)" overflow="visible" opacity=".85"/><use xlink:href="#a" width="34.891" height="39.645" x="-17.45" y="-19.828" transform="matrix(-.368 0 0 -.368 64.31 180.734)" overflow="visible" opacity=".85"/><use xlink:href="#a" width="34.891" height="39.645" x="-17.45" y="-19.828" transform="matrix(-.368 0 0 -.368 156.869 159.453)" overflow="visible" opacity=".85"/><use xlink:href="#a" width="34.891" height="39.645" x="-17.45" y="-19.828" transform="matrix(-.368 0 0 -.368 168.437 150.151)" overflow="visible" opacity=".85"/><use xlink:href="#a" width="34.891" height="39.645" x="-17.45" y="-19.828" transform="matrix(-.368 0 0 -.368 173.444 175.761)" overflow="visible" opacity=".85"/><use xlink:href="#a" width="34.891" height="39.645" x="-17.45" y="-19.828" transform="matrix(-.368 0 0 -.368 189.858 192.583)" overflow="visible" opacity=".85"/><use xlink:href="#a" width="34.891" height="39.645" x="-17.45" y="-19.828" transform="matrix(-.368 0 0 -.368 196.84 180.605)" overflow="visible" opacity=".85"/><use xlink:href="#a" width="34.891" height="39.645" x="-17.45" y="-19.828" transform="matrix(-.368 0 0 -.368 199.248 202.492)" overflow="visible" opacity=".85"/><use xlink:href="#a" width="34.891" height="39.645" x="-17.45" y="-19.828" transform="matrix(-.368 0 0 -.368 205.505 193.435)" overflow="visible" opacity=".85"/><use xlink:href="#a" width="34.891" height="39.645" x="-17.45" y="-19.828" transform="matrix(-.368 0 0 -.368 206.403 215.366)" overflow="visible" opacity=".85"/><use xlink:href="#a" width="34.891" height="39.645" x="-17.45" y="-19.828" transform="matrix(-.368 0 0 -.368 222.514 187.54)" overflow="visible" opacity=".85"/><use xlink:href="#a" width="34.891" height="39.645" x="-17.45" y="-19.828" transform="matrix(-.368 0 0 -.368 204.219 162.626)" overflow="visible" opacity=".85"/><use xlink:href="#a" width="34.891" height="39.645" x="-17.45" y="-19.828" transform="matrix(-.368 0 0 -.368 192.584 152.088)" overflow="visible" opacity=".85"/><use xlink:href="#a" width="34.891" height="39.645" x="-17.45" y="-19.828" transform="matrix(-.368 0 0 -.368 183.383 144.071)" overflow="visible" opacity=".85"/><use xlink:href="#a" width="34.891" height="39.645" x="-17.45" y="-19.828" transform="matrix(-.368 0 0 -.368 213.576 175.442)" overflow="visible" opacity=".85"/><use xlink:href="#a" width="34.891" height="39.645" x="-17.45" y="-19.828" transform="matrix(-.368 0 0 -.368 233.048 198.728)" overflow="visible" opacity=".85"/><use xlink:href="#a" width="34.891" height="39.645" x="-17.45" y="-19.828" transform="matrix(-.368 0 0 -.368 125.025 200.289)" overflow="visible" opacity=".85"/><use xlink:href="#a" width="34.891" height="39.645" x="-17.45" y="-19.828" transform="matrix(-.368 0 0 -.368 115.604 205.387)" overflow="visible" opacity=".85"/><use xlink:href="#a" width="34.891" height="39.645" x="-17.45" y="-19.828" transform="matrix(-.368 0 0 -.368 108.041 210.766)" overflow="visible" opacity=".85"/><use xlink:href="#a" width="34.891" height="39.645" x="-17.45" y="-19.828" transform="matrix(-.368 0 0 -.368 211.052 205.344)" overflow="visible" opacity=".85"/><use xlink:href="#a" width="34.891" height="39.645" x="-17.45" y="-19.828" transform="matrix(-.368 0 0 -.368 214.711 124.863)" overflow="visible" opacity=".85"/><use xlink:href="#a" width="34.891" height="39.645" x="-17.45" y="-19.828" transform="matrix(-.368 0 0 -.368 217.222 212.748)" overflow="visible" opacity=".85"/><use xlink:href="#a" width="34.891" height="39.645" x="-17.45" y="-19.828" transform="matrix(-.368 0 0 -.368 102.233 197.472)" overflow="visible" opacity=".85"/><use xlink:href="#a" width="34.891" height="39.645" x="-17.45" y="-19.828" transform="matrix(-.368 0 0 -.368 183.537 269.446)" overflow="visible" opacity=".85"/><use xlink:href="#a" width="34.891" height="39.645" x="-17.45" y="-19.828" transform="matrix(-.368 0 0 -.368 190.311 263.035)" overflow="visible" opacity=".85"/><use xlink:href="#a" width="34.891" height="39.645" x="-17.45" y="-19.828" transform="matrix(-.368 0 0 -.368 200.786 256.357)" overflow="visible" opacity=".85"/><use xlink:href="#a" width="34.891" height="39.645" x="-17.45" y="-19.828" transform="matrix(-.368 0 0 -.368 255.262 270.232)" overflow="visible" opacity=".85"/><use xlink:href="#a" width="34.891" height="39.645" x="-17.45" y="-19.828" transform="matrix(-.279 0 0 -.279 169.254 244.242)" overflow="visible" opacity=".85"/><use xlink:href="#a" width="34.891" height="39.645" x="-17.45" y="-19.828" transform="matrix(-.279 0 0 -.279 176.972 241.094)" overflow="visible" opacity=".85"/><use xlink:href="#a" width="34.891" height="39.645" x="-17.45" y="-19.828" transform="matrix(-.279 0 0 -.279 159.637 255.592)" overflow="visible" opacity=".85"/><use xlink:href="#a" width="34.891" height="39.645" x="-17.45" y="-19.828" transform="matrix(-.279 0 0 -.279 135.147 249.163)" overflow="visible" opacity=".85"/><use xlink:href="#a" width="34.891" height="39.645" x="-17.45" y="-19.828" transform="matrix(-.279 0 0 -.279 110.809 236.193)" overflow="visible" opacity=".85"/><use xlink:href="#a" width="34.891" height="39.645" x="-17.45" y="-19.828" transform="matrix(-.279 0 0 -.279 88.556 233.045)" overflow="visible" opacity=".85"/><use xlink:href="#a" width="34.891" height="39.645" x="-17.45" y="-19.828" transform="matrix(-.279 0 0 -.279 102.234 246.208)" overflow="visible" opacity=".85"/><use xlink:href="#a" width="34.891" height="39.645" x="-17.45" y="-19.828" transform="matrix(-.279 0 0 -.279 122.521 258.665)" overflow="visible" opacity=".85"/><use xlink:href="#a" width="34.891" height="39.645" x="-17.45" y="-19.828" transform="matrix(-.279 0 0 -.279 118.754 266.611)" overflow="visible" opacity=".85"/><use xlink:href="#a" width="34.891" height="39.645" x="-17.45" y="-19.828" transform="matrix(-.279 0 0 -.279 144.837 265.788)" overflow="visible" opacity=".85"/><use xlink:href="#a" width="34.891" height="39.645" x="-17.45" y="-19.828" transform="matrix(-.279 0 0 -.279 177.213 279.958)" overflow="visible" opacity=".85"/><use xlink:href="#a" width="34.891" height="39.645" x="-17.45" y="-19.828" transform="matrix(-.279 0 0 -.279 79.376 250.224)" overflow="visible" opacity=".85"/><use xlink:href="#a" width="34.891" height="39.645" x="-17.45" y="-19.828" transform="matrix(-.279 0 0 -.279 68.48 221.729)" overflow="visible" opacity=".85"/><use xlink:href="#a" width="34.891" height="39.645" x="-17.45" y="-19.828" transform="matrix(-.279 0 0 -.279 80.272 213.69)" overflow="visible" opacity=".85"/><use xlink:href="#a" width="34.891" height="39.645" x="-17.45" y="-19.828" transform="matrix(-.279 0 0 -.279 91.721 206.747)" overflow="visible" opacity=".85"/><use xlink:href="#a" width="34.891" height="39.645" x="-17.45" y="-19.828" transform="matrix(-.279 0 0 -.279 95.08 226.449)" overflow="visible" opacity=".85"/><use xlink:href="#a" width="34.891" height="39.645" x="-17.45" y="-19.828" transform="matrix(-.279 0 0 -.279 103.773 216.763)" overflow="visible" opacity=".85"/><use xlink:href="#a" width="34.891" height="39.645" x="-17.45" y="-19.828" transform="matrix(-.279 0 0 -.279 120.484 228.464)" overflow="visible" opacity=".85"/><use xlink:href="#a" width="34.891" height="39.645" x="-17.45" y="-19.828" transform="matrix(-.279 0 0 -.279 143.795 243.718)" overflow="visible" opacity=".85"/><use xlink:href="#a" width="34.891" height="39.645" x="-17.45" y="-19.828" transform="matrix(-.279 0 0 -.279 147.245 238.336)" overflow="visible" opacity=".85"/><use xlink:href="#a" width="34.891" height="39.645" x="-17.45" y="-19.828" transform="matrix(-.279 0 0 -.279 151.32 234.443)" overflow="visible" opacity=".85"/><use xlink:href="#a" width="34.891" height="39.645" x="-17.45" y="-19.828" transform="matrix(-.279 0 0 -.279 161.822 231.613)" overflow="visible" opacity=".85"/><use xlink:href="#a" width="34.891" height="39.645" x="-17.45" y="-19.828" transform="matrix(-.279 0 0 -.279 131.562 218.514)" overflow="visible" opacity=".85"/><use xlink:href="#a" width="34.891" height="39.645" x="-17.45" y="-19.828" transform="matrix(-.279 0 0 -.279 122.91 223.3)" overflow="visible" opacity=".85"/><use xlink:href="#a" width="34.891" height="39.645" x="-17.45" y="-19.828" transform="matrix(-.279 0 0 -.279 139.795 215.365)" overflow="visible" opacity=".85"/><path opacity=".6" fill="none" stroke="#A0C3D8" stroke-width=".75" stroke-linecap="round" stroke-linejoin="round" stroke-miterlimit="10" d="M485.036 19.069v3.862l-47.63 34.757-26.174 32.611-25.316 39.047-33.04 46.342-35.614 42.051-18.881 38.618-3.862 9.011-9.011 14.59v8.582l7.724 11.156-2.575 6.865 18.881 19.738 18.879 17.164 22.314 22.742 7.295 9.87h-1.717l-8.582-8.153-21.883-21.025-20.596-18.022-24.029-15.448-9.44-.43-7.294-4.719-21.455-.858-84.103 12.442-49.346 18.023-71.228 3.432-15.449 9.01s-3.862.002-5.149-1.715v-32.182l10.298-22.742 21.027-38.189 3.432-24.029-6.436-9.011-11.157-19.728-23.6-18.462v-24.029l6.008-6.436 9.439.858-6.866 6.008 7.038 13.516 18.706 1.072 12.014-.429 6.436-17.164 20.598-18.022 14.588-6.007-12.873-14.59-19.309 6.436-24.028 16.308-9.868-.858 24.028-19.31 31.753-12.014 26.175 13.731 15.189-3.945 20.855 6.52 21.025 1.287 38.189-6.007 68.226-24.458 60.073-24.029 44.626-18.88 37.332-20.597 60.072-18.022 4.291 3.861zm0 0l-53.208 30.895-29.178 30.465-27.033 35.615-43.339 36.044-55.781 30.037-38.19 26.174-16.305 14.161v46.342l-9.869 6.436-8.154 4.291h-26.174l-32.611-6.008-28.749 21.455-36.474 29.608-20.166 12.872-30.465 2.574-10.189 9.594m401.521-316.395l11.156 16.735 5.578 7.724m-26.174 32.61l-6.895-11.63-20.997-24.842-30.036 36.472-45.913 36.044-61.789 27.463-42.051 10.298m133.536-90.746l16.217 16.941 22.313 25.746 10.298 13.302m-175.499-8.153l35.186 32.612 33.04 27.165 26.603 27.329 12.016 9.44m-145.034-90.538v6.436l31.324 30.466 34.756 44.196 40.335 34.327 19.738 13.731m-249.303-.858l30.894 21.026 36.474 18.451 28.392 18.023 14.088 6.864m-131.987-23.716l24.285 16.422 25.421 14.138 32.935 11.179 36.474-25.746 40.763-9.011 20.168-6.007 15.018-5.579 7.283-2.145 9.022-4.291 8.153-6.007 8.636-8.583 14.964-14.16 8.582-15.018 26.603-33.04 48.442-33.749-21.409-22.462-24.887-25.746-28.749-29.607m-127.44 29.179v10.298l44.195 42.909 8.154 12.659 6.865 10.952 4.291 12.003 7.295 7.725 46.975 34.922 25.541 7.986m-9.011 14.59l-30.411-9.441-33.094-18.021-13.303-13.302-15.447-15.019-10.298-9.011-2.158 1.609-13.29-16.198h-2.574l-16.735-12.872h-3.003l-21.025-14.16-24.888-39.906 51.921 2.575-51.921 48.487-12.874 13.731-10.297 6.436-27.033 9.869 5.069-23.189 3.512-16.716m325.682-121.004l-43.059 22.868-57.157 24.658-70.45 21.935-40.447 10.35-21.025 2.575-20.597-6.866-15.447 5.104-26.175-24.842-2.576 9.44 9.449 16 8.146 6.157m26.344-21.812l.259 9.953m-15.447-6.007v11.111m-26.602 122.954l-6.703 20.073-30.63 35.092-17.593 11.156-11.156 3.433-5.203 4.71 12.069 8.162 9.365 1.271m253.891-39.912l-10.522-3.839-33.898-17.592-26.174-11.156-20.597-12.445m-127.44-3.861l8.58-14.589 11.587-12.015 9.87-11.157 5.148-3.002 6.008-4.936 9.868-4.065 20.168-15.029 27.463-13.302 8.589-9.02 9.067 26.399m-126.684 46.556l4.327-17.164 21.027-14.375 5.149-4.065 5.149-3.872 6.866-7.08 18.022-18.237 31.323-13.731 10.719-9.028 6.446 23.617m-21.455-38.189l4.29 23.6m-60.502 102.982l6.866-15.877 18.88-21.454 2.575-3.003 7.294-4.721 8.153-3.004 28.748-14.16 22.807-8.795 5.084-12.659 3.863 21.835m-112.724 32.813l14.09 15.992m130.262-50.896l-16.181 15.87-6.008 24.459-7.294 17.163-19.31 13.302-21.025 2.575-15.876 1.287-12.846-2.589m89.348-83.756l-11.28 15.556-3.432 12.003m6.056-38.565l-9.489 15.61 3.433 22.955-13.732 9.44-15.982 17.59-7.617 2.363-2.361 2.789-4.935 2.844-3.432 6.596-15.447 9.011m60.073-101.265l-8.154 15.018m-2.721-25.595l-11.43 11.855m1.708-21.31l-16.743 6.713m-81.519-11.14l1.844 4.427-11.285 9.455-11.622 10.577.465-6.437m144.657 154.825l-18.438-10.404-45.119-28.566m76.502 37.054l-14.712-13.453-59.859-22.377m143.531 31.816l-9.439 6.866m4.29-24.887l-3.433 9.01-7.294 3.839-10.298 6.889-35.197-18.88-25.306-9.869-19.569-10.084-22.053-19.684-17.163-7.996-23.6-13.728-15.245-14.671-15.579-7.979-14.66-.521v-6.001l8.683-4.514 7.581-7.175 9.86-15.124 6.642-18.051-4.874-12.796-17.466 2.866 21.756 9.455 6.866 5.569 36.044-22.883m91.825 171.208l-20.167-16.129-45.055-11.762-16.735-7.295-17.592-6.866-12.873 6.436-15.447-6.436-4.72 3.862-12.015-6.436h-3.433l-15.876-13.302-5.149 3.004-10.336-14.16h-2.966l-8.153-6.865m148.895 24.886l-31.752-12.229 7.617-2.363-26.068-7.996-20.597-16.03-15.447-10.942-14.532-7.932-1.774-11.689 11.157-23.073 5.149-5.008m45.912 72.376l-30.465-13.732m8.153-3.004l-23.6-7.938m9.868-4.065l-24.4-3.867m-83.355-34.762l-5.954 20.167 10.727-5.149 4.894-4.934m18.706 1.072l-6.613 8.022-9.057 15.584m113.866 66.503l-22.246-5.578-6.436 5.578m-16.735-2.574l3.811-15.63m15.908 19.447l3.452-6.821m-42.48-10.298l7.704-15.402m-26.155 4.246l7.293-17.164 14.589 16.735m-24.182-116.714l8.103 4.721m9.644 26.893l29.022 21.38m-47.474.643l5.971 4.291 21.164 15.23 2.025 3.64 6.764 4.047 15.568 9.695 14.161 10.727 22.526 13.733 21.455 10.724 24.77 15.877 20.071 12.444 26.174 9.869 36.473 16.282 11.156 8.605 21.39 17.799 12.207 10.605 19.581 18.257 18.911 19.42m-295.61-175.277l7.688-1.933-8.153-7.085-7.804-.234-15.115-8.265-16.987-4.16-4.773-15.018 2.629-3.433m56.21 38.195h-6.007m88.822 57.492l-15.447-15.591m-8.153 8.995l-15.457-23.312m-9.058 10.293l-4.461-23.376m-11.341 11.536l-4.238-19.515m-11.394 7.979l-3.266-8.5m18.88-15.59l-31.361-25.173v15.018l-1.679 12.659v9.176l-12.873 13.779.158.054 18.721 6.383-21.882 1.288 3.003-7.725-17.051-19.094-20.709-11.371m139.885 49.499l18.451 10.359m33.898-52.348l-4.291 9.176-16.306 14.208-21.884 16.307-9.868 2.298-4.077 2.424-11.8 13.568-13.731 10.029-19.738-12.873m-84.385 77.331l5.295 2.819 15.204 12.234 25.659.799-5.883-2.469-26.197-13.266-13.796-7.934"/></svg>